<?xml version="1.0" encoding="UTF-8" standalone="no"?>
<!DOCTYPE svg PUBLIC "-//W3C//DTD SVG 1.1//EN" "http://www.w3.org/Graphics/SVG/1.1/DTD/svg11.dtd">
<svg width="100%" height="100%" viewBox="0 0 2837 1048" version="1.1" xmlns="http://www.w3.org/2000/svg" xmlns:xlink="http://www.w3.org/1999/xlink" xml:space="preserve" xmlns:serif="http://www.serif.com/" style="fill-rule:evenodd;clip-rule:evenodd;stroke-linejoin:round;stroke-miterlimit:2;">
    <g transform="matrix(1,0,0,1,0,-2021.642964)">
        <g id="Mesa-de-trabajo2" serif:id="Mesa de trabajo2" transform="matrix(1.303328,0,0,0.630876,0,2021.642964)">
            <rect x="0" y="0" width="2176.251" height="1659.643" style="fill:none;"/>
            <g transform="matrix(0.78227,0,0,1.616094,285.303416,-7.089938)">
                <g transform="matrix(1,0,0,1,-0.302863,-932.989832)">
                    <path d="M1242.002,1346.114L1241.931,1346.114L1241.931,1305.156L1465.759,1305.156L1465.759,1346.114C1437.503,1336.134 1407.52,1329.826 1376.384,1327.764L1376.384,1596.823L1332,1596.823L1332,1327.724C1300.641,1329.742 1270.446,1336.067 1242.002,1346.114Z" style="fill:rgb(243,172,75);"/>
                </g>
                <g transform="matrix(1,0,0,1,-0.302863,-932.989832)">
                    <path d="M498.866,1490.886L549.694,1490.886C546.424,1498.632 544.615,1507.144 544.615,1516.074C544.615,1551.881 573.685,1580.951 609.491,1580.951C645.297,1580.951 674.367,1551.881 674.367,1516.074C674.367,1506.756 671.881,1499.232 666.91,1493.503C666.13,1492.604 665.297,1491.732 664.412,1490.886C659.656,1486.339 653.385,1482.554 645.598,1479.531C636.362,1475.946 625.346,1472.67 612.551,1469.701L596.991,1466.009C589.702,1464.301 582.79,1462.418 576.253,1460.36C566.161,1457.182 556.966,1453.587 548.667,1449.574C534.993,1442.961 524.41,1434.27 516.916,1423.5C509.423,1412.729 505.676,1398.796 505.676,1381.699C505.676,1364.603 509.864,1349.905 518.241,1337.604C526.618,1325.304 538.344,1315.849 553.42,1309.239C568.496,1302.628 586.158,1299.323 606.405,1299.323C626.657,1299.323 644.762,1302.792 660.721,1309.73C676.681,1316.668 689.264,1326.957 698.472,1340.596C707.68,1354.235 712.284,1371.318 712.284,1391.843L712.284,1406.823L660.755,1406.823C664.727,1398.94 666.965,1390.035 666.965,1380.612C666.965,1348.396 640.809,1322.24 608.593,1322.24C576.376,1322.24 550.22,1348.396 550.22,1380.612C550.22,1389.393 552.387,1396.622 556.721,1402.302C557.932,1403.889 559.299,1405.396 560.823,1406.823C564.749,1410.502 569.712,1413.647 575.712,1416.26C584.039,1419.886 594.326,1423.095 606.574,1425.886L622.134,1429.571C626.541,1430.54 630.828,1431.575 634.995,1432.678C648.691,1436.3 661.096,1440.643 672.209,1445.707C686.703,1452.31 698.11,1461.137 706.428,1472.188C714.746,1483.238 718.905,1497.505 718.905,1514.987C718.905,1532.474 714.489,1547.783 705.656,1560.915C696.824,1574.046 684.363,1584.286 668.274,1591.634C652.184,1598.982 633.228,1602.656 611.405,1602.656C589.491,1602.656 570.068,1598.75 553.137,1590.938C536.205,1583.125 522.927,1571.695 513.303,1556.647C503.678,1541.6 498.866,1523.13 498.866,1501.237L498.866,1490.886Z" style="fill:rgb(243,172,75);"/>
                </g>
                <g transform="matrix(1,0,0,1,1228.573585,-932.989832)">
                    <path d="M498.866,1490.886L549.694,1490.886C546.424,1498.632 544.615,1507.144 544.615,1516.074C544.615,1551.881 573.685,1580.951 609.491,1580.951C645.297,1580.951 674.367,1551.881 674.367,1516.074C674.367,1506.756 671.881,1499.232 666.91,1493.503C666.13,1492.604 665.297,1491.732 664.412,1490.886C659.656,1486.339 653.385,1482.554 645.598,1479.531C636.362,1475.946 625.346,1472.67 612.551,1469.701L596.991,1466.009C589.702,1464.301 582.79,1462.418 576.253,1460.36C566.161,1457.182 556.966,1453.587 548.667,1449.574C534.993,1442.961 524.41,1434.27 516.916,1423.5C509.423,1412.729 505.676,1398.796 505.676,1381.699C505.676,1364.603 509.864,1349.905 518.241,1337.604C526.618,1325.304 538.344,1315.849 553.42,1309.239C568.496,1302.628 586.158,1299.323 606.405,1299.323C626.657,1299.323 644.762,1302.792 660.721,1309.73C676.681,1316.668 689.264,1326.957 698.472,1340.596C707.68,1354.235 712.284,1371.318 712.284,1391.843L712.284,1406.823L660.755,1406.823C664.727,1398.94 666.965,1390.035 666.965,1380.612C666.965,1348.396 640.809,1322.24 608.593,1322.24C576.376,1322.24 550.22,1348.396 550.22,1380.612C550.22,1389.393 552.387,1396.622 556.721,1402.302C557.932,1403.889 559.299,1405.396 560.823,1406.823C564.749,1410.502 569.712,1413.647 575.712,1416.26C584.039,1419.886 594.326,1423.095 606.574,1425.886L622.134,1429.571C626.541,1430.54 630.828,1431.575 634.995,1432.678C648.691,1436.3 661.096,1440.643 672.209,1445.707C686.703,1452.31 698.11,1461.137 706.428,1472.188C714.746,1483.238 718.905,1497.505 718.905,1514.987C718.905,1532.474 714.489,1547.783 705.656,1560.915C696.824,1574.046 684.363,1584.286 668.274,1591.634C652.184,1598.982 633.228,1602.656 611.405,1602.656C589.491,1602.656 570.068,1598.75 553.137,1590.938C536.205,1583.125 522.927,1571.695 513.303,1556.647C503.678,1541.6 498.866,1523.13 498.866,1501.237L498.866,1490.886Z" style="fill:rgb(243,172,75);"/>
                </g>
                <g transform="matrix(1,0,0,1,1482.531816,-932.989832)">
                    <path d="M498.866,1490.886L549.694,1490.886C546.424,1498.632 544.615,1507.144 544.615,1516.074C544.615,1551.881 573.685,1580.951 609.491,1580.951C645.297,1580.951 674.367,1551.881 674.367,1516.074C674.367,1506.756 671.881,1499.232 666.91,1493.503C666.13,1492.604 665.297,1491.732 664.412,1490.886C659.656,1486.339 653.385,1482.554 645.598,1479.531C636.362,1475.946 625.346,1472.67 612.551,1469.701L596.991,1466.009C589.702,1464.301 582.79,1462.418 576.253,1460.36C566.161,1457.182 556.966,1453.587 548.667,1449.574C534.993,1442.961 524.41,1434.27 516.916,1423.5C509.423,1412.729 505.676,1398.796 505.676,1381.699C505.676,1364.603 509.864,1349.905 518.241,1337.604C526.618,1325.304 538.344,1315.849 553.42,1309.239C568.496,1302.628 586.158,1299.323 606.405,1299.323C626.657,1299.323 644.762,1302.792 660.721,1309.73C676.681,1316.668 689.264,1326.957 698.472,1340.596C707.68,1354.235 712.284,1371.318 712.284,1391.843L712.284,1406.823L660.755,1406.823C664.727,1398.94 666.965,1390.035 666.965,1380.612C666.965,1348.396 640.809,1322.24 608.593,1322.24C576.376,1322.24 550.22,1348.396 550.22,1380.612C550.22,1389.393 552.387,1396.622 556.721,1402.302C557.932,1403.889 559.299,1405.396 560.823,1406.823C564.749,1410.502 569.712,1413.647 575.712,1416.26C584.039,1419.886 594.326,1423.095 606.574,1425.886L622.134,1429.571C626.541,1430.54 630.828,1431.575 634.995,1432.678C648.691,1436.3 661.096,1440.643 672.209,1445.707C686.703,1452.31 698.11,1461.137 706.428,1472.188C714.746,1483.238 718.905,1497.505 718.905,1514.987C718.905,1532.474 714.489,1547.783 705.656,1560.915C696.824,1574.046 684.363,1584.286 668.274,1591.634C652.184,1598.982 633.228,1602.656 611.405,1602.656C589.491,1602.656 570.068,1598.75 553.137,1590.938C536.205,1583.125 522.927,1571.695 513.303,1556.647C503.678,1541.6 498.866,1523.13 498.866,1501.237L498.866,1490.886Z" style="fill:rgb(243,172,75);"/>
                </g>
                <g transform="matrix(1,0,0,1,0,-1611)">
                    <path d="M1114.122,2233.876L1214.498,2233.876L1214.498,2274.833L1105.53,2274.833C1063.114,2274.833 1028.73,2240.449 1028.73,2198.033L1028.73,2059.967C1028.73,2017.551 1063.114,1983.167 1105.53,1983.167L1212.291,1983.167L1212.291,2024.124L1109.533,2024.124C1086.508,2024.124 1067.815,2042.817 1067.815,2065.842L1067.815,2065.993C1067.815,2087.806 1084.592,2105.731 1105.935,2107.558L1105.932,2107.561L1105.967,2107.561C1107.142,2107.661 1108.332,2107.712 1109.533,2107.712C1110.735,2107.712 1111.924,2107.661 1113.1,2107.561C1120.657,2106.92 1127.642,2104.261 1133.515,2100.126L1133.515,2155.414C1126.871,2151.147 1118.969,2148.671 1110.494,2148.671C1086.989,2148.671 1067.897,2167.712 1067.815,2191.197L1067.815,2191.35C1067.815,2214.905 1086.938,2234.029 1110.494,2234.029C1111.716,2234.029 1112.926,2233.977 1114.122,2233.876Z" style="fill:rgb(243,172,75);"/>
                </g>
                <g transform="matrix(1,0,0,1,0,-1611.139327)">
                    <path d="M743.98,2274.833L827.209,1983.167L906.128,1983.167L989.357,2274.833L942.749,2274.833C942.749,2260.539 938.799,2247.161 931.932,2235.731C924.196,2222.856 912.759,2212.453 899.098,2205.999C889.257,2201.35 878.263,2198.749 866.665,2198.749C855.068,2198.749 844.073,2201.35 834.233,2205.999C820.571,2212.453 809.134,2222.856 801.399,2235.731C794.531,2247.161 790.581,2260.539 790.581,2274.833L743.98,2274.833ZM911.619,2160.653L869.982,2011.187L863.355,2011.187L821.718,2160.653C835.64,2155.162 850.805,2152.145 866.668,2152.145C882.532,2152.145 897.696,2155.162 911.619,2160.653Z" style="fill:rgb(243,172,75);"/>
                </g>
                <g transform="matrix(1,0,0,1,711.854095,-1611.139327)">
                    <path d="M743.98,2274.833L827.209,1983.167L906.128,1983.167L989.357,2274.833L942.749,2274.833C942.749,2260.539 938.799,2247.161 931.932,2235.731C924.196,2222.856 912.759,2212.453 899.098,2205.999C889.257,2201.35 878.263,2198.749 866.665,2198.749C855.068,2198.749 844.073,2201.35 834.233,2205.999C820.571,2212.453 809.134,2222.856 801.399,2235.731C794.531,2247.161 790.581,2260.539 790.581,2274.833L743.98,2274.833ZM911.619,2160.653L869.982,2011.187L863.355,2011.187L821.718,2160.653C835.64,2155.162 850.805,2152.145 866.668,2152.145C882.532,2152.145 897.696,2155.162 911.619,2160.653Z" style="fill:rgb(243,172,75);"/>
                </g>
            </g>
            <g transform="matrix(1.534534,0,0,3.170195,-2969.369218,890.312591)">
                <g transform="matrix(2.362327,0,0,2.362327,949.619249,-1211.9528)">
                    <path d="M485.224,521.875C487.508,516.466 491.475,511.939 496.467,508.953C499.234,509.824 502.16,510.621 505.246,511.344L511.832,512.907C517.249,514.163 521.912,515.551 525.822,517.068C529.118,518.348 531.773,519.95 533.786,521.875C534.161,522.233 534.513,522.602 534.843,522.982C536.948,525.408 538,528.593 538,532.537C538,547.694 525.694,560 510.537,560C495.38,560 483.074,547.694 483.074,532.537C483.074,528.757 483.84,525.154 485.224,521.875Z" style="fill:rgb(243,102,75);"/>
                </g>
                <g transform="matrix(2.125513,0,0,2.125513,1069.623296,-1221.302441)">
                    <path d="M535.078,544.869C532.442,550.101 528.18,554.377 522.959,557.033C520.998,556.514 518.981,556.027 516.908,555.571L509.588,553.837C503.825,552.524 498.985,551.015 495.068,549.309C492.245,548.079 489.91,546.599 488.063,544.869C487.346,544.197 486.703,543.488 486.133,542.742C484.094,540.07 483.074,536.668 483.074,532.537C483.074,517.38 495.38,505.074 510.537,505.074C525.694,505.074 538,517.38 538,532.537C538,536.971 536.947,541.16 535.078,544.869Z" style="fill:rgb(243,102,75);"/>
                </g>
                <g transform="matrix(0.259449,0,0,0.259449,1804.813604,-466.581287)">
                    <path d="M1450.635,1654.503C1503.425,1668.466 1551.236,1685.206 1594.07,1704.721C1649.935,1730.174 1693.899,1764.196 1725.96,1806.788C1758.02,1849.379 1774.051,1904.367 1774.051,1971.751C1774.051,2039.151 1757.029,2098.158 1722.986,2148.771C1688.943,2199.384 1640.914,2238.852 1578.901,2267.174C1516.887,2295.496 1443.824,2309.656 1359.711,2309.656C1275.247,2309.656 1200.386,2294.601 1135.126,2264.489C1069.867,2234.377 1018.69,2190.321 981.593,2132.322C944.497,2074.324 925.949,2003.134 925.949,1918.754L925.949,1878.856L1121.857,1878.856C1109.252,1908.712 1102.281,1941.519 1102.281,1975.941C1102.281,2113.949 1214.327,2225.995 1352.335,2225.995C1490.343,2225.995 1602.388,2113.949 1602.388,1975.941C1602.388,1940.024 1592.807,1911.025 1573.644,1888.943C1570.637,1885.479 1567.429,1882.116 1564.018,1878.856C1545.688,1861.331 1521.515,1846.743 1491.501,1835.093C1455.902,1821.275 1413.444,1808.645 1364.128,1797.202L1304.155,1782.974C1276.061,1776.391 1249.418,1769.133 1224.224,1761.2C1185.327,1748.952 1149.886,1735.094 1117.9,1719.626C1065.196,1694.14 1024.402,1660.64 995.52,1619.128C966.638,1577.615 952.197,1523.911 952.197,1458.017C952.197,1392.122 968.34,1335.469 1000.627,1288.06C1032.913,1240.65 1078.11,1204.207 1136.218,1178.729C1194.326,1153.251 1262.399,1140.512 1340.439,1140.512C1418.496,1140.512 1488.281,1153.882 1549.792,1180.623C1611.304,1207.364 1659.806,1247.02 1695.296,1299.59C1730.786,1352.161 1748.531,1418.001 1748.531,1497.112L1748.531,1554.851L1549.921,1554.851C1565.233,1524.467 1573.857,1490.146 1573.857,1453.826C1573.857,1329.653 1473.044,1228.84 1348.871,1228.84C1224.698,1228.84 1123.885,1329.653 1123.885,1453.826C1123.885,1487.668 1132.237,1515.534 1148.94,1537.424C1153.609,1543.542 1158.879,1549.351 1164.75,1554.851C1179.884,1569.029 1199.013,1581.154 1222.137,1591.224C1254.232,1605.201 1293.883,1617.568 1341.092,1628.324L1401.065,1642.527C1418.049,1646.262 1434.572,1650.254 1450.635,1654.503Z" style="fill:rgb(243,172,75);"/>
                </g>
            </g>
        </g>
    </g>
</svg>
